<svg width="21" height="18" viewBox="0 0 21 18" fill="none" xmlns="http://www.w3.org/2000/svg">
<path d="M8.43309 1.07199C7.47127 0.2884 6.24201 -0.0896344 5.00609 0.0180886C3.77017 0.125812 2.62484 0.710816 1.81309 1.64899C1.12065 2.34486 0.626694 3.21309 0.382317 4.16388C0.13794 5.11466 0.152016 6.11347 0.42309 7.05699C1.27809 10.777 5.70309 14.952 9.04309 17.594C9.37258 17.8569 9.78159 18 10.2031 18C10.6246 18 11.0336 17.8569 11.3631 17.594C14.7031 14.952 19.1281 10.778 19.9831 7.05699C20.2532 6.11347 20.2669 5.11499 20.0228 4.16442C19.7786 3.21385 19.2855 2.34555 18.5941 1.64899C17.7823 0.710816 16.637 0.125812 15.4011 0.0180886C14.1652 -0.0896344 12.9359 0.2884 11.9741 1.07199L10.8481 2.02199C10.6677 2.17427 10.4392 2.25781 10.2031 2.25781C9.96699 2.25781 9.73851 2.17427 9.55809 2.02199L8.43309 1.07199Z" fill="white"/>
</svg>
