<svg width="21" height="20" viewBox="0 0 21 20" fill="none" xmlns="http://www.w3.org/2000/svg">
<path d="M20.2031 10C20.2031 15.523 15.7261 20 10.2031 20C4.68013 20 0.203125 15.523 0.203125 10C0.203125 4.477 4.68013 0 10.2031 0C15.7261 0 20.2031 4.477 20.2031 10ZM4.41313 13.975C5.06197 14.9095 5.92764 15.6729 6.93602 16.1997C7.94439 16.7266 9.06542 17.0012 10.2031 17C11.3407 17.0013 12.4617 16.7268 13.4701 16.2002C14.4784 15.6735 15.3442 14.9104 15.9931 13.976C16.4201 13.363 16.1671 12.541 15.4931 12.214C13.8449 11.4126 12.0358 10.9975 10.2031 11C8.30513 11 6.51013 11.436 4.91313 12.213C4.24013 12.54 3.98612 13.363 4.41313 13.975ZM9.19713 3C8.37313 3 7.70312 3.618 7.70312 4.381V6.691C7.70312 7.965 8.82312 9 10.2031 9C11.5831 9 12.7031 7.965 12.7031 6.69V4.382C12.7031 3.618 12.0331 3 11.2081 3H9.19713Z" fill="white"/>
</svg>
