<svg width="21" height="21" viewBox="0 0 21 21" fill="none" xmlns="http://www.w3.org/2000/svg">
<path d="M0.965247 7.17298C1.46201 5.95146 2.19547 4.84026 3.12339 3.90334C4.05132 2.96641 5.15539 2.22226 6.37205 1.71372C7.58871 1.20518 8.89394 0.942297 10.2126 0.940198C11.5313 0.9381 12.8373 1.19683 14.0556 1.70149C15.2739 2.20616 16.3803 2.94679 17.3112 3.88076C18.2421 4.81473 18.9791 5.92359 19.4797 7.14351C19.9804 8.36344 20.2348 9.67034 20.2284 10.989C20.222 12.3076 19.9548 13.612 19.4422 14.827C18.4158 17.2603 16.4684 19.1887 14.0252 20.1914C11.582 21.1941 8.84133 21.1896 6.40144 20.1789C3.96154 19.1682 2.02052 17.2333 1.00205 14.7967C-0.0164247 12.36 -0.029655 9.61937 0.965247 7.17298ZM13.1272 9.99698C13.3399 9.95831 13.5499 9.92165 13.7572 9.88698C14.1512 9.57698 13.8192 8.88498 13.3402 8.73398C12.8434 8.65915 12.3374 8.66998 11.8442 8.76598C11.3432 8.78598 10.7362 8.55798 10.6712 8.05998C10.6659 8.00846 10.6626 7.95676 10.6612 7.90498C10.6562 7.75498 10.6512 7.60498 10.5372 7.51998C10.477 7.48812 10.41 7.47138 10.3419 7.4712C10.2738 7.47103 10.2066 7.48743 10.1462 7.51898C9.63237 7.76875 9.13973 8.06005 8.67325 8.38998C8.43754 8.55273 8.16453 8.65328 7.87956 8.6823C7.5946 8.71132 7.30693 8.66787 7.04325 8.55598L7.09625 7.58798C7.23825 7.40798 7.50125 7.37798 7.75225 7.34798C8.04225 7.31498 8.31825 7.28298 8.37225 7.02398C8.37803 6.90357 8.37099 6.7829 8.35125 6.66398C8.34625 6.27398 8.73125 6.07198 9.11425 5.87098C9.49825 5.66998 9.88225 5.46798 9.88025 5.07898C9.84757 4.87609 9.78382 4.67945 9.69125 4.49598C9.62959 4.22516 9.64332 3.94263 9.73094 3.67906C9.81856 3.4155 9.97672 3.18098 10.1882 3.00098C8.06651 3.0031 6.03253 3.84799 4.53374 5.34978C3.03495 6.85157 2.19412 8.88725 2.19625 11.009C2.19837 13.1307 3.04326 15.1647 4.54505 16.6635C6.04684 18.1623 8.08251 19.0031 10.2042 19.001C10.2602 18.9996 10.3162 18.9966 10.3722 18.992L10.4892 18.986C10.3903 18.4078 10.3378 17.8226 10.3322 17.236C10.3322 17.006 10.1942 16.985 10.0392 16.961C9.89325 16.938 9.73325 16.913 9.66225 16.708L9.61225 16.558C9.50125 16.218 9.42725 15.992 9.03725 15.958C8.87754 15.9509 8.72185 15.9056 8.58325 15.826C8.46225 15.759 8.38725 15.717 8.06325 15.843C7.67419 15.9598 7.25869 15.9548 6.87256 15.8286C6.48644 15.7024 6.14819 15.4611 5.90325 15.137C5.42629 14.4758 5.14711 13.6927 5.09825 12.879C5.10425 12.618 5.18425 12.363 5.32825 12.146C5.39825 12.006 5.61425 11.882 5.81025 11.769C5.92425 11.704 6.03025 11.642 6.10025 11.583L6.23025 11.473C6.72325 11.055 7.08425 10.75 7.20325 10.083L9.20325 9.99998C10.4012 10.49 11.8112 10.235 13.1272 9.99698ZM14.2072 11.728C14.5033 12.3931 14.943 12.9843 15.4947 13.4593C16.0465 13.9342 16.6965 14.2811 17.3982 14.475C17.6116 14.035 17.7829 13.5793 17.9122 13.108L17.2942 13.232C17.1374 13.2834 16.9674 13.2778 16.8142 13.216C16.7063 13.1425 16.6211 13.0403 16.5682 12.921C16.1936 12.2331 15.9073 11.5006 15.7162 10.741L14.4522 11.254C14.3961 11.2687 14.3435 11.2946 14.2976 11.3302C14.2517 11.3657 14.2135 11.4102 14.1852 11.461C14.1617 11.5499 14.1694 11.6442 14.2072 11.728Z" fill="white"/>
</svg>
