<svg width="14" height="14" viewBox="0 0 14 14" fill="none" xmlns="http://www.w3.org/2000/svg">
<path d="M3.08336 9.05666C3.20072 9.07573 3.32095 9.06623 3.43386 9.02898C3.54678 8.99173 3.64905 8.92782 3.73203 8.84266L11.5787 0.845994C11.9649 0.448285 12.4582 0.171093 12.9987 0.0479941L13.1327 0.0193275C13.2515 -0.0111256 13.3762 -0.0098291 13.4944 0.0230873C13.6125 0.0560038 13.7199 0.119385 13.8059 0.206882C13.8918 0.29438 13.9533 0.402923 13.9841 0.521641C14.0149 0.64036 14.0139 0.765085 13.9814 0.883327L13.9527 1.02066C13.8349 1.56773 13.5631 2.0697 13.1694 2.46733L10.6334 5.05199C10.5475 5.14028 10.4839 5.2478 10.4479 5.36562C10.412 5.48343 10.4047 5.60813 10.4267 5.72933L11.588 12.2173C11.6169 12.3434 11.6138 12.4746 11.5788 12.5991C11.5439 12.7236 11.4783 12.8374 11.388 12.93L10.716 13.614C10.6747 13.6563 10.6238 13.688 10.5677 13.7067C10.5115 13.7253 10.4518 13.7303 10.3933 13.7211C10.3349 13.712 10.2795 13.689 10.2317 13.6542C10.1839 13.6193 10.1452 13.5735 10.1187 13.5207L7.67603 8.76733C7.64952 8.71446 7.61077 8.66868 7.563 8.63381C7.51523 8.59894 7.45983 8.57598 7.40139 8.56685C7.34296 8.55772 7.28319 8.56268 7.22706 8.58132C7.17093 8.59995 7.12006 8.63173 7.07869 8.67399L5.35203 10.434C5.26038 10.5279 5.19412 10.6435 5.15948 10.7701C5.12484 10.8966 5.12296 11.0299 5.15403 11.1573L5.59536 12.988C5.603 13.1828 5.55258 13.3754 5.45049 13.5415C5.34841 13.7076 5.19927 13.8395 5.02203 13.9207H5.02136C4.93134 13.9683 4.83239 13.9967 4.7308 14.004C4.62921 14.0112 4.52722 13.9973 4.43133 13.963C4.33543 13.9287 4.24773 13.8748 4.17382 13.8047C4.09991 13.7346 4.0414 13.6499 4.00203 13.556L3.19336 11.548C3.08276 11.3147 2.89707 11.1252 2.66603 11.01L0.524693 10.376C0.342207 10.2866 0.202101 10.1292 0.134525 9.93754C0.0669482 9.74591 0.0773027 9.5354 0.16336 9.35133C0.232659 9.16546 0.358211 9.00584 0.522523 8.8947C0.686834 8.78357 0.88172 8.72646 1.08003 8.73133L3.08336 9.05666Z" fill="white"/>
</svg>
