<svg width="15" height="12" viewBox="0 0 15 12" fill="none" xmlns="http://www.w3.org/2000/svg">
<path d="M1.94599 1.37799C1.80302 1.4486 1.68375 1.55936 1.60276 1.69671C1.52177 1.83406 1.48258 1.99205 1.48999 2.15133V4.28666C1.49523 4.48059 1.5771 4.66453 1.71766 4.79823C1.85823 4.93192 2.04605 5.00447 2.23999 5H2.98999C3.1226 5 3.24978 4.94732 3.34354 4.85355C3.43731 4.75978 3.48999 4.6326 3.48999 4.5V3.49999C3.48999 3.36739 3.54267 3.24021 3.63644 3.14644C3.73021 3.05267 3.85738 2.99999 3.98999 2.99999H5.98999C6.1226 2.99999 6.24978 3.05267 6.34354 3.14644C6.43731 3.24021 6.48999 3.36739 6.48999 3.49999V4.5C6.48999 4.6326 6.54267 4.75978 6.63644 4.85355C6.73021 4.94732 6.85738 5 6.98999 5H7.98999C8.1226 5 8.24978 4.94732 8.34354 4.85355C8.43731 4.75978 8.48999 4.6326 8.48999 4.5V3.49999C8.48999 3.36739 8.54267 3.24021 8.63644 3.14644C8.73021 3.05267 8.85738 2.99999 8.98999 2.99999H10.99C11.1226 2.99999 11.2498 3.05267 11.3435 3.14644C11.4373 3.24021 11.49 3.36739 11.49 3.49999V4.5C11.49 4.6326 11.5427 4.75978 11.6364 4.85355C11.7302 4.94732 11.8574 5 11.99 5H12.7387C12.9329 5.00447 13.1211 4.93165 13.2617 4.79752C13.4023 4.6634 13.4839 4.47894 13.4887 4.28466L13.488 3.57133H13.49V2.15133C13.4974 1.99205 13.4582 1.83406 13.3772 1.69671C13.2962 1.55936 13.177 1.4486 13.034 1.37799L11.7067 0.836662C9.00616 -0.278602 5.97382 -0.278602 3.27332 0.836662L1.94599 1.37799ZM2.48999 6C1.95956 6 1.45085 6.21071 1.07578 6.58578C0.700704 6.96085 0.48999 7.46956 0.48999 8V11.5C0.48999 11.6326 0.542669 11.7598 0.636437 11.8535C0.730205 11.9473 0.857382 12 0.98999 12H1.18066C1.27356 12 1.36463 11.9741 1.44364 11.9252C1.52266 11.8764 1.58649 11.8064 1.62799 11.7233L2.48999 10H12.49L13.352 11.7233C13.3934 11.8063 13.4572 11.8762 13.5361 11.9251C13.6149 11.9739 13.7059 11.9999 13.7987 12H13.99C14.1226 12 14.2498 11.9473 14.3435 11.8535C14.4373 11.7598 14.49 11.6326 14.49 11.5V8C14.49 7.46956 14.2793 6.96085 13.9042 6.58578C13.5291 6.21071 13.0204 6 12.49 6H2.48999Z" fill="white"/>
</svg>
