<svg width="21" height="14" viewBox="0 0 21 14" fill="none" xmlns="http://www.w3.org/2000/svg">
<path d="M19.3125 2H1.3125C0.7125 2 0.3125 1.6 0.3125 1C0.3125 0.4 0.7125 0 1.3125 0H19.3125C19.9125 0 20.3125 0.4 20.3125 1C20.3125 1.6 19.9125 2 19.3125 2ZM20.3125 7C20.3125 7.6 19.9795 8 19.4795 8H1.1455C0.6455 8 0.3125 7.6 0.3125 7C0.3125 6.4 0.6455 6 1.1455 6H19.4795C19.9795 6 20.3125 6.4 20.3125 7ZM19.2015 12C19.8685 12 20.3125 12.4 20.3125 13C20.3125 13.6 19.8685 14 19.2015 14H1.4225C0.7565 14 0.3125 13.6 0.3125 13C0.3125 12.4 0.7565 12 1.4235 12H19.2015Z" fill="white"/>
</svg>
