<svg width="40" height="40" viewBox="0 0 40 40" fill="none" xmlns="http://www.w3.org/2000/svg">
<path d="M20 10C25.5228 10 30 14.4772 30 20C30 20.4717 29.9673 20.9358 29.9042 21.3901C28.9334 19.3838 26.8783 18 24.5 18C24.1854 18 23.8764 18.0242 23.5748 18.0709C23.4673 17.9165 23.3119 17.7893 23.1368 17.7343C22.6402 17.6595 22.1345 17.6701 21.6414 17.7657C21.1396 17.7862 20.5331 17.5576 20.4677 17.0597L20.4609 16.9833L20.4578 16.9044C20.4529 16.7548 20.448 16.6044 20.3337 16.5204C20.2115 16.456 20.0655 16.4554 19.9427 16.5187C19.4289 16.7688 18.9363 17.0603 18.4698 17.3904C18.0345 17.6917 17.4864 17.7707 16.9878 17.6111L16.8399 17.5561L16.8933 16.5882L16.9611 16.5199C17.0802 16.4239 17.2471 16.3881 17.4194 16.3648L17.7381 16.3241C17.9509 16.2897 18.1268 16.2255 18.1692 16.0241C18.1752 15.9036 18.1681 15.7828 18.148 15.6639C18.1442 15.3518 18.3891 15.1605 18.6839 14.9933L19.1384 14.7487C19.4329 14.5816 19.6783 14.3905 19.677 14.079C19.645 13.876 19.5813 13.6794 19.4883 13.4962C19.3627 12.9441 19.5542 12.3679 19.9853 12.0008C15.569 12.0076 11.9937 15.5918 11.9979 20.0081C12.0021 24.4244 15.5842 28.0018 20.0005 28.0002H20.028C20.703 28.7543 21.566 29.3367 22.5433 29.6737C21.7312 29.8866 20.8789 30 20 30C14.4772 30 10 25.5228 10 20C10 14.4772 14.4772 10 20 10Z" fill="#20161D"/>
<path d="M18.5 24C18.5 24.3093 18.5234 24.613 18.5685 24.9097C18.5356 24.8994 18.5069 24.8882 18.4812 24.8769L18.3803 24.8256C18.2588 24.7586 18.1841 24.7174 17.8601 24.8433C17.063 25.083 16.2009 24.8011 15.6993 24.1368C15.2218 23.476 14.9429 22.6925 14.8953 21.8786C14.9011 21.6175 14.9809 21.3634 15.1256 21.1459C15.1722 21.0524 15.2836 20.9661 15.4108 20.8856L15.6075 20.7688C15.7207 20.7037 15.8276 20.6422 15.8964 20.5834L16.0272 20.4724C16.4707 20.0971 16.8071 19.8124 16.9574 19.2731L17.0005 19.0834L19.0005 19L19.2428 19.0883C19.7373 19.2474 20.2632 19.2933 20.8001 19.2763C19.3997 20.3747 18.5 22.0823 18.5 24Z" fill="#20161D"/>
<path d="M17.7692 13.3807C17.6315 13.401 17.4808 13.6178 17.3337 13.8669L17.0638 14.3354C16.9934 14.4515 16.9267 14.5486 16.8661 14.6041C16.8326 14.6279 16.8087 14.6629 16.7986 14.7027C16.7996 14.7332 16.809 14.7626 16.8252 14.7879L17.1262 15.1373L17.5873 14.9433C17.8971 14.82 18.2117 14.7087 18.5302 14.6097C18.5191 14.6132 18.5028 14.5854 18.4817 14.5361L18.3287 14.1297L18.2393 13.9107C18.1116 13.6196 17.9507 13.3539 17.7692 13.3807Z" fill="#20161D"/>
<path d="M24.5 29C21.7386 29 19.5 26.7614 19.5 24C19.5 21.2386 21.7386 19 24.5 19C27.2614 19 29.5 21.2386 29.5 24C29.5 25.1477 29.1133 26.205 28.4631 27.0489L30.7071 29.2929C31.0976 29.6834 31.0976 30.3166 30.7071 30.7071C30.3166 31.0976 29.6834 31.0976 29.2929 30.7071L26.9471 28.3613C26.2237 28.768 25.389 29 24.5 29ZM24.5 27C26.1569 27 27.5 25.6569 27.5 24C27.5 22.3431 26.1569 21 24.5 21C22.8431 21 21.5 22.3431 21.5 24C21.5 25.6569 22.8431 27 24.5 27Z" fill="#20161D"/>
</svg>
