<svg width="21" height="20" viewBox="0 0 21 20" fill="none" xmlns="http://www.w3.org/2000/svg">
<path d="M6.70448 16.6429C5.62449 16.0787 4.69734 15.2611 4.00241 14.2602C3.38366 13.3721 3.77271 12.2114 4.69437 11.7634C6.35813 10.9539 8.22779 10.5 10.2031 10.5M6.70448 16.6429L10.2031 11M6.70448 16.6429C7.78432 17.2071 8.98478 17.5012 10.2031 17.5M6.70448 16.6429L15.4931 12.214M10.2031 10.5V11M10.2031 10.5C10.2029 10.5 10.2027 10.5 10.2024 10.5L10.2031 11M10.2031 10.5C12.1115 10.4975 13.9954 10.9299 15.7118 11.7643M10.2031 11C12.0358 10.9975 13.8449 11.4126 15.4931 12.214M15.7118 11.7643C15.7116 11.7643 15.7115 11.7642 15.7114 11.7641L15.4931 12.214M15.7118 11.7643L15.4931 12.214M15.7118 11.7643C16.6354 12.2127 17.0221 13.3728 16.4038 14.2612C15.7087 15.2619 14.7815 16.0793 13.7016 16.6434C12.6217 17.2073 11.4213 17.5013 10.2031 17.5M10.2031 17.5C10.2029 17.5 10.2027 17.5 10.2026 17.5L10.2031 17L10.2036 17.5C10.2035 17.5 10.2033 17.5 10.2031 17.5ZM19.7031 10C19.7031 15.2469 15.45 19.5 10.2031 19.5C4.95627 19.5 0.703125 15.2469 0.703125 10C0.703125 4.75314 4.95627 0.5 10.2031 0.5C15.45 0.5 19.7031 4.75314 19.7031 10ZM9.19713 2.5C8.13506 2.5 7.20312 3.30526 7.20312 4.381V6.691C7.20312 8.27774 8.58506 9.5 10.2031 9.5C11.8213 9.5 13.2031 8.2776 13.2031 6.69V4.382C13.2031 3.30528 12.2712 2.5 11.2081 2.5H9.19713Z" fill="white"/>
<path d="M6.70448 16.6429C5.62449 16.0787 4.69734 15.2611 4.00241 14.2602C3.38366 13.3721 3.77271 12.2114 4.69437 11.7634C6.35813 10.9539 8.22779 10.5 10.2031 10.5M6.70448 16.6429L10.2031 11M6.70448 16.6429C7.78432 17.2071 8.98478 17.5012 10.2031 17.5M6.70448 16.6429L15.4931 12.214M10.2031 10.5V11M10.2031 10.5C10.2029 10.5 10.2027 10.5 10.2024 10.5L10.2031 11M10.2031 10.5C12.1115 10.4975 13.9954 10.9299 15.7118 11.7643M10.2031 11C12.0358 10.9975 13.8449 11.4126 15.4931 12.214M15.7118 11.7643C15.7116 11.7643 15.7115 11.7642 15.7114 11.7641L15.4931 12.214M15.7118 11.7643L15.4931 12.214M15.7118 11.7643C16.6354 12.2127 17.0221 13.3728 16.4038 14.2612C15.7087 15.2619 14.7815 16.0793 13.7016 16.6434C12.6217 17.2073 11.4213 17.5013 10.2031 17.5M10.2031 17.5C10.2029 17.5 10.2027 17.5 10.2026 17.5L10.2031 17L10.2036 17.5C10.2035 17.5 10.2033 17.5 10.2031 17.5ZM19.7031 10C19.7031 15.2469 15.45 19.5 10.2031 19.5C4.95627 19.5 0.703125 15.2469 0.703125 10C0.703125 4.75314 4.95627 0.5 10.2031 0.5C15.45 0.5 19.7031 4.75314 19.7031 10ZM9.19713 2.5C8.13506 2.5 7.20312 3.30526 7.20312 4.381V6.691C7.20312 8.27774 8.58506 9.5 10.2031 9.5C11.8213 9.5 13.2031 8.2776 13.2031 6.69V4.382C13.2031 3.30528 12.2712 2.5 11.2081 2.5H9.19713Z" stroke="black"/>
<path d="M6.70448 16.6429C5.62449 16.0787 4.69734 15.2611 4.00241 14.2602C3.38366 13.3721 3.77271 12.2114 4.69437 11.7634C6.35813 10.9539 8.22779 10.5 10.2031 10.5M6.70448 16.6429L10.2031 11M6.70448 16.6429C7.78432 17.2071 8.98478 17.5012 10.2031 17.5M6.70448 16.6429L15.4931 12.214M10.2031 10.5V11M10.2031 10.5C10.2029 10.5 10.2027 10.5 10.2024 10.5L10.2031 11M10.2031 10.5C12.1115 10.4975 13.9954 10.9299 15.7118 11.7643M10.2031 11C12.0358 10.9975 13.8449 11.4126 15.4931 12.214M15.7118 11.7643C15.7116 11.7643 15.7115 11.7642 15.7114 11.7641L15.4931 12.214M15.7118 11.7643L15.4931 12.214M15.7118 11.7643C16.6354 12.2127 17.0221 13.3728 16.4038 14.2612C15.7087 15.2619 14.7815 16.0793 13.7016 16.6434C12.6217 17.2073 11.4213 17.5013 10.2031 17.5M10.2031 17.5C10.2029 17.5 10.2027 17.5 10.2026 17.5L10.2031 17L10.2036 17.5C10.2035 17.5 10.2033 17.5 10.2031 17.5ZM19.7031 10C19.7031 15.2469 15.45 19.5 10.2031 19.5C4.95627 19.5 0.703125 15.2469 0.703125 10C0.703125 4.75314 4.95627 0.5 10.2031 0.5C15.45 0.5 19.7031 4.75314 19.7031 10ZM9.19713 2.5C8.13506 2.5 7.20312 3.30526 7.20312 4.381V6.691C7.20312 8.27774 8.58506 9.5 10.2031 9.5C11.8213 9.5 13.2031 8.2776 13.2031 6.69V4.382C13.2031 3.30528 12.2712 2.5 11.2081 2.5H9.19713Z" stroke="black" stroke-opacity="0.2"/>
</svg>
